<svg xmlns="http://www.w3.org/2000/svg" width="256" height="256" viewBox="0 0 100 100"><rect width="100" height="100" rx="20" fill="#6b6ba4"></rect><path d="M71.11 22.37L71.11 22.37Q71.55 23.09 71.96 24.30Q72.36 25.52 72.36 26.96L72.36 26.96Q72.36 29.39 71.24 30.65Q70.11 31.91 68.14 31.91L68.14 31.91L55.72 31.91L55.72 76.91Q55.00 77.09 53.47 77.36Q51.94 77.63 50.31 77.63L50.31 77.63Q46.89 77.63 45.45 76.37Q44.02 75.11 44.02 72.14L44.02 72.14L44.02 31.91L28.89 31.91Q28.45 31.10 28.04 29.93Q27.64 28.76 27.64 27.32L27.64 27.32Q27.64 24.80 28.76 23.59Q29.89 22.37 31.87 22.37L31.87 22.37L71.11 22.37Z" fill="#fff"></path></svg>